<svg xmlns="http://www.w3.org/2000/svg" width="97" height="97" fill="none" viewBox="0 0 97 97">
  <path fill="#F4F4F9" d="M97 48.5C97 75.286 75.286 97 48.5 97S0 75.286 0 48.5 21.714 0 48.5 0 97 21.714 97 48.5Z"/>
  <path fill="#F4F4F9" d="m51.715 22.92-3.01-3.01Zm-3.01-3.01c-1.464-1.567-2.551-3.15-1.425-4.277 1.901-1.9 3.326.159 4.277 1.109l8.233 8.234c1.056 1.056 2.535 2.85 2.693 4.593.136 1.497 1.267 2.534 1.584 2.851l4.594 4.594M48.706 19.91c-1.258-1.346-3.449-4.155-5.227-2.376-2.06 2.059.475 3.643 5.227 8.395m-9.03-6.179c-1.22 1.22-.827 2.274.916 4.15Zm6.336 9.504c-2.387-2.387-4.223-4.065-5.42-5.354Zm-1.158-7.082c-1.258-1.346-3.555-4.04-5.334-2.26Zm-3.279 8.664c-4.277-4.276-6.494-5.544-4.435-7.603 1.14-1.14 2.776-.03 3.452.667m3.36 9.312 4.117 4.118Zm2.692 6.177c.95.95 3.647.937 5.544 1.11 1.742.158 2.217.633 2.534.95l5.069 5.068 3.326-3.326M51.079 15.947c.685-.687 2.437-1.681 3.96-.158l5.068 5.068c.634.634 1.553 2.376.159 4.277"/>
  <path stroke="#1964DE" stroke-linecap="round" stroke-linejoin="round" stroke-width="1.344" d="m51.715 22.92-3.01-3.01m0 0c-1.464-1.567-2.551-3.15-1.425-4.277 1.901-1.9 3.326.159 4.277 1.109l8.233 8.234c1.056 1.056 2.535 2.85 2.693 4.593.136 1.497 1.267 2.534 1.584 2.851l4.594 4.594M48.706 19.91c-1.258-1.346-3.449-4.155-5.227-2.376-2.06 2.059.475 3.643 5.227 8.395m-9.03-6.179c-1.22 1.22-.827 2.274.916 4.15m0 0c1.197 1.29 3.033 2.967 5.42 5.354m-5.42-5.354c-.676-.697-2.311-1.807-3.452-.667-2.059 2.06.158 3.326 4.435 7.603m3.28-8.664c-1.259-1.346-3.556-4.04-5.335-2.26m4.431 13.3 4.118 4.118m-1.425 2.06c.95.95 3.647.936 5.544 1.108 1.742.159 2.217.634 2.534.95l5.069 5.07 3.326-3.327M51.079 15.947c.685-.687 2.437-1.681 3.96-.158l5.068 5.068c.634.634 1.553 2.376.159 4.277"/>
  <path fill="#F4F4F9" d="m24.471 45.405-3.01 3.01Zm-3.01 3.01c-1.566 1.465-3.15 2.552-4.276 1.425-1.9-1.9.159-3.326 1.109-4.276l8.234-8.234c1.056-1.056 2.85-2.534 4.593-2.692 1.497-.136 2.534-1.268 2.851-1.584l4.91-4.91m-17.42 20.27c-1.346 1.26-4.155 3.45-2.376 5.228 2.059 2.06 3.643-.475 8.395-5.227m-6.179 9.03c1.22 1.22 2.274.827 4.15-.916Zm9.504-6.336c-2.387 2.387-4.065 4.222-5.354 5.42Zm-7.082 1.158c-1.346 1.258-4.04 3.555-2.26 5.333Zm8.664 3.279c-4.276 4.276-5.544 6.494-7.603 4.435-1.14-1.14-.03-2.776.667-3.452m9.312-3.36 3.96-3.96Zm6.177-2.692c.95-.95.937-3.647 1.11-5.544.158-1.742.633-2.217.95-2.534l5.068-5.069-3.326-3.326M17.499 46.042c-.687-.685-1.681-2.437-.158-3.96l5.068-5.069c.634-.633 2.376-1.552 4.277-.158"/>
  <path stroke="#1964DE" stroke-linecap="round" stroke-linejoin="round" stroke-width="1.344" d="m24.471 45.405-3.01 3.01m0 0c-1.566 1.465-3.15 2.552-4.276 1.425-1.9-1.9.159-3.326 1.109-4.276l8.234-8.234c1.056-1.056 2.85-2.534 4.593-2.692 1.497-.136 2.534-1.268 2.851-1.584l4.91-4.91m-17.42 20.27c-1.346 1.26-4.155 3.45-2.376 5.228 2.059 2.06 3.643-.475 8.395-5.227m-6.179 9.03c1.22 1.22 2.274.827 4.15-.916m0 0c1.29-1.198 2.967-3.033 5.354-5.42m-5.354 5.42c-.697.675-1.807 2.311-.667 3.452 2.06 2.059 3.326-.159 7.603-4.435m-8.664-3.28c-1.346 1.259-4.04 3.556-2.26 5.334m13.3-4.43 3.96-3.96m2.218 1.267c.95-.95.936-3.647 1.108-5.544.159-1.742.634-2.217.95-2.534l5.07-5.069-3.327-3.326M17.499 46.042c-.687-.685-1.681-2.437-.158-3.96l5.068-5.069c.634-.633 2.376-1.552 4.277-.158"/>
  <path fill="#F4F4F9" d="m46.8 72.808 3.009 3.01Zm3.009 3.01c1.465 1.567 2.551 3.15 1.425 4.276-1.9 1.9-3.326-.158-4.276-1.109l-8.234-8.233c-1.056-1.056-2.534-2.852-2.693-4.594-.136-1.496-1.267-2.534-1.584-2.85l-4.593-4.594m19.955 17.103c1.258 1.346 3.448 4.155 5.227 2.377 2.059-2.06-.476-3.644-5.227-8.396m9.03 6.18c1.22-1.221.827-2.275-.916-4.15Zm-6.336-9.505c2.387 2.388 4.222 4.065 5.42 5.354Zm1.157 7.082c1.259 1.346 3.556 4.04 5.334 2.261Zm3.28-8.664c4.276 4.277 6.494 5.544 4.434 7.603-1.14 1.14-2.776.03-3.451-.667m-3.36-9.312-4.118-4.118Zm-2.85-6.336c-.951-.95-3.489-.778-5.386-.95-1.742-.158-2.218-.634-2.534-.95l-5.069-5.069-3.326 3.326M47.436 79.78c-.686.687-2.437 1.681-3.96.159l-5.069-5.07c-.633-.633-1.552-2.375-.158-4.276"/>
  <path stroke="#1964DE" stroke-linecap="round" stroke-linejoin="round" stroke-width="1.344" d="m46.8 72.808 3.009 3.01m0 0c1.465 1.567 2.551 3.15 1.425 4.276-1.9 1.9-3.326-.158-4.276-1.109l-8.234-8.233c-1.056-1.056-2.534-2.852-2.693-4.594-.136-1.496-1.267-2.534-1.584-2.85l-4.593-4.594m19.955 17.103c1.258 1.346 3.448 4.155 5.227 2.377 2.059-2.06-.476-3.644-5.227-8.396m9.03 6.18c1.22-1.221.827-2.275-.916-4.15m0 0c-1.198-1.29-3.033-2.968-5.42-5.355m5.42 5.354c.675.698 2.311 1.807 3.451.667 2.06-2.06-.158-3.326-4.435-7.603m-3.279 8.664c1.259 1.346 3.556 4.04 5.334 2.261m-4.43-13.3-4.119-4.12m1.267-2.217c-.95-.95-3.488-.778-5.385-.95-1.742-.158-2.218-.634-2.534-.95l-5.069-5.069-3.326 3.326M47.436 79.78c-.686.687-2.437 1.681-3.96.159l-5.069-5.07c-.633-.633-1.552-2.375-.158-4.276"/>
  <path fill="#F4F4F9" d="m74.044 50.32 3.01-3.01Zm3.01-3.01c1.567-1.465 3.15-2.551 4.276-1.425 1.901 1.9-.158 3.326-1.108 4.277l-8.234 8.233c-1.056 1.056-2.851 2.535-4.593 2.693-1.497.136-2.535 1.267-2.852 1.584l-4.594 4.595M77.054 47.31c1.345-1.259 4.154-3.45 2.376-5.228-2.06-2.059-3.644.476-8.395 5.228m6.179-9.03c-1.221-1.22-2.274-.828-4.15.915Zm-9.504 6.336c2.387-2.387 4.064-4.223 5.354-5.42Zm7.082-1.158c1.346-1.258 4.039-3.556 2.26-5.334Zm-8.665-3.28c4.277-4.276 5.544-6.493 7.603-4.434 1.14 1.14.031 2.776-.666 3.451m-9.312 3.36-3.803 3.803Zm-6.02 2.217c-.95.95-1.094 4.122-1.267 6.02-.158 1.742-.633 2.217-.95 2.534l-5.069 5.068 3.327 3.327m27.244-12.038c.687.685 1.68 2.437.158 3.96l-5.069 5.068c-.633.634-2.376 1.552-4.276.158"/>
  <path stroke="#1964DE" stroke-linecap="round" stroke-linejoin="round" stroke-width="1.344" d="m74.044 50.32 3.01-3.01m0 0c1.567-1.465 3.15-2.551 4.276-1.425 1.901 1.9-.158 3.326-1.108 4.277l-8.234 8.233c-1.056 1.056-2.851 2.535-4.593 2.693-1.497.136-2.535 1.267-2.852 1.584l-4.594 4.595M77.054 47.31c1.345-1.259 4.154-3.45 2.376-5.228-2.06-2.059-3.644.476-8.395 5.228m6.179-9.03c-1.221-1.22-2.274-.828-4.15.915m0 0c-1.29 1.198-2.967 3.034-5.354 5.42m5.354-5.42c.697-.675 1.807-2.31.666-3.451-2.059-2.06-3.326.158-7.603 4.435m8.665 3.279c1.346-1.258 4.039-3.556 2.26-5.334m-13.3 4.43-3.803 3.804m-2.216-1.586c-.95.95-1.095 4.122-1.268 6.02-.158 1.742-.633 2.217-.95 2.534l-5.069 5.068 3.327 3.327m27.244-12.038c.687.685 1.68 2.437.158 3.96l-5.069 5.068c-.633.634-2.376 1.552-4.276.158"/>
</svg>
